<svg width="269" height="40" viewBox="0 0 269 40" fill="none" xmlns="http://www.w3.org/2000/svg">
<g clip-path="url(#clip0_41_2420)">
<path d="M10.6085 6.73804C16.3863 6.73804 21.0275 11.0696 21.0275 16.9413C21.0275 22.7167 16.2915 27.1445 10.8926 27.1445C8.33521 27.1445 5.87254 26.3744 4.07289 24.2568H3.88345V39.0803H0V18.4814C0 11.3584 4.07289 6.73804 10.6085 6.73804ZM10.5137 23.6793C14.3025 23.6793 16.9546 20.599 16.9546 16.845C16.9546 13.1873 14.3972 10.1071 10.5137 10.1071C6.63028 10.1071 3.97817 13.091 3.97817 16.845C3.97817 20.599 6.725 23.6793 10.5137 23.6793Z" fill="#8C64D8"/>
<path d="M24.6267 16.9413C24.6267 11.0696 29.4573 6.73804 35.1404 6.73804C40.8235 6.73804 45.6541 11.0696 45.6541 16.9413C45.6541 22.8129 40.8235 27.1445 35.1404 27.1445C29.4573 27.1445 24.6267 22.8129 24.6267 16.9413ZM35.1404 23.6793C39.0239 23.6793 41.5812 20.6953 41.5812 16.9413C41.5812 13.1873 38.9291 10.2033 35.1404 10.2033C31.3517 10.2033 28.6996 13.1873 28.6996 16.9413C28.6996 20.6953 31.2569 23.6793 35.1404 23.6793Z" fill="#8C64D8"/>
<path d="M59.8622 27.1445C53.8002 27.1445 49.2537 22.8129 49.2537 16.9413C49.2537 11.0696 53.7055 6.73804 59.7675 6.73804C64.4087 6.73804 68.671 9.24071 69.8076 14.1498H65.8294C64.8822 11.5509 62.5143 10.2033 59.8622 10.2033C55.7893 10.2033 53.3266 13.2835 53.3266 17.0375C53.3266 20.7916 55.884 23.7755 59.9569 23.7755C62.609 23.7755 64.977 22.5242 65.9241 19.7327H69.9023C68.4815 24.7381 64.3139 27.1445 59.8622 27.1445Z" fill="#8C64D8"/>
<path d="M84.2042 24.3529L77.858 10.877H77.7633V26.7594H74.0693V7.12305H79.9418L86.1932 20.5027H86.288L92.5394 7.12305H98.4119V26.6631H94.7179V10.877H94.6232L88.277 24.3529H84.2042Z" fill="#8C64D8"/>
<path d="M102.58 16.9413C102.58 11.0696 107.411 6.73804 113.094 6.73804C118.777 6.73804 123.607 11.0696 123.607 16.9413C123.607 22.8129 118.777 27.1445 113.094 27.1445C107.411 27.1445 102.58 22.8129 102.58 16.9413ZM113.188 23.6793C117.072 23.6793 119.629 20.6953 119.629 16.9413C119.629 13.1873 116.977 10.2033 113.188 10.2033C109.305 10.2033 106.748 13.1873 106.748 16.9413C106.653 20.6953 109.305 23.6793 113.188 23.6793Z" fill="#8C64D8"/>
<path d="M125.596 26.8555V22.8127H125.691C126.449 22.8127 127.301 22.524 127.869 21.8502C128.627 21.0801 128.911 19.54 129.29 17.4224L129.859 14.2459C130.522 10.6844 131.753 7.02661 137.057 7.02661H144.54V26.663H140.656V10.6844H137.625C134.594 10.6844 134.026 11.5507 133.268 15.6897L132.795 18.5774C132.321 21.2726 131.658 23.5828 130.332 25.0266C129.29 26.1817 127.869 26.7593 125.88 26.7593H125.596V26.8555Z" fill="#8C64D8"/>
<path d="M148.897 16.9413C148.897 11.0696 153.728 6.73804 159.411 6.73804C165.094 6.73804 169.925 11.0696 169.925 16.9413C169.925 22.8129 165.094 27.1445 159.411 27.1445C153.728 27.1445 148.897 22.8129 148.897 16.9413ZM159.411 23.6793C163.294 23.6793 165.852 20.6953 165.852 16.9413C165.852 13.1873 163.2 10.2033 159.411 10.2033C155.527 10.2033 152.97 13.1873 152.97 16.9413C152.97 20.6953 155.622 23.6793 159.411 23.6793Z" fill="#8C64D8"/>
<path d="M174.471 31.4758H170.777V23.1015H173.24C174.377 21.8502 174.945 19.925 175.419 17.7111L176.271 14.0534C177.029 10.5881 178.544 7.02661 183.28 7.02661H190.763V23.1015H193.51V31.4758H189.816V26.7593H174.377V31.4758H174.471ZM186.974 23.1978V10.6844H183.375C181.007 10.6844 180.249 12.6095 179.776 14.6309L178.923 18.3849C178.45 20.5026 177.787 22.2352 177.029 22.909V23.1978H186.974Z" fill="#8C64D8"/>
<path d="M206.959 27.1444C200.803 27.1444 196.351 22.8128 196.351 16.9412C196.351 11.0695 200.803 6.73797 206.77 6.73797C211.411 6.73797 216.905 9.81818 216.905 17.2299V18H200.14C200.518 21.2727 203.076 23.6791 206.865 23.6791C209.138 23.6791 211.79 22.8128 212.548 20.8877H216.526C215.389 25.2193 210.937 27.1444 206.959 27.1444ZM200.329 0H204.307V4.04278H200.329V0ZM213.021 15.016C212.453 12.0321 210.18 10.107 206.77 10.107C203.455 10.107 201.087 12.2246 200.424 15.016H213.021ZM208.948 0H212.927V4.04278H208.948V0Z" fill="#8C64D8"/>
<path d="M235.186 7.12305V14.9198H238.406L242.953 7.12305H247.215L241.532 16.4599L247.594 26.6631H243.237L238.406 18.385H235.091V26.6631H231.492V18.385H228.271L223.441 26.6631H219.084L225.146 16.4599L219.463 7.12305H223.725L228.271 14.9198H231.492V7.12305H235.186Z" fill="#8C64D8"/>
<path d="M250.341 17.9038L250.246 7.12305H254.129V12.7059H254.224C255.834 10.6845 257.918 9.72198 260.381 9.72198C265.117 9.72198 268.906 13.2834 268.906 18.2888C268.906 23.3904 265.022 27.1444 259.623 27.1444C254.319 27.1444 250.341 23.2941 250.341 17.9038ZM259.623 23.6792C262.654 23.6792 264.927 21.4652 264.927 18.4813C264.927 15.4973 262.654 13.1872 259.623 13.1872C256.592 13.1872 254.414 15.4011 254.414 18.4813C254.414 21.5615 256.592 23.6792 259.623 23.6792Z" fill="#8C64D8"/>
</g>
<defs>
<clipPath id="clip0_41_2420">
<rect width="269" height="40" fill="white"/>
</clipPath>
</defs>
</svg>
